<svg width="817" height="318" viewBox="0 0 817 318" fill="none" xmlns="http://www.w3.org/2000/svg">
<g filter="url(#filter0_d_0_19)">
<path d="M4 190.968C4 135.782 48.737 91.0449 103.923 91.0449C159.106 91.0449 203.84 135.78 203.84 190.963V193.116C203.84 248.3 159.105 293.036 103.92 293.036C48.7358 293.036 4 248.3 4 193.116V190.968Z" fill="white"/>
<g clip-path="url(#clip0_0_19)">
<path fill-rule="evenodd" clip-rule="evenodd" d="M34.9696 191.012C34.9696 191.012 61.9156 149.881 105.115 149.881C148.6 149.881 175.065 191.012 175.065 191.012C175.065 191.012 148.215 232.143 105.115 232.143C61.9417 232.143 34.9696 191.012 34.9696 191.012Z" stroke="#131415" stroke-width="5.0905"/>
<path d="M105.009 232.143C126.746 232.143 144.368 213.728 144.368 191.012C144.368 168.296 126.746 149.881 105.009 149.881C83.2711 149.881 65.6494 168.296 65.6494 191.012C65.6494 213.728 83.2711 232.143 105.009 232.143Z" stroke="#131415" stroke-width="5.0905"/>
<path d="M105.024 206.082C112.934 206.082 119.345 199.382 119.345 191.116C119.345 182.851 112.934 176.15 105.024 176.15C97.1147 176.15 90.7029 182.851 90.7029 191.116C90.7029 199.382 97.1147 206.082 105.024 206.082Z" fill="#131415"/>
</g>
<path d="M355.776 111.567H380.385V309.573H355.776V228.673C343.518 247.343 325.698 256.677 302.314 256.677C282.513 256.677 265.636 249.511 251.681 235.179C237.726 220.659 230.749 203.027 230.749 182.283C230.749 161.54 237.726 144.002 251.681 129.67C265.636 115.15 282.513 107.89 302.314 107.89C325.698 107.89 343.518 117.224 355.776 135.893V111.567ZM305.426 232.916C319.758 232.916 331.732 228.108 341.35 218.49C350.967 208.684 355.776 196.615 355.776 182.283C355.776 167.951 350.967 155.977 341.35 146.359C331.732 136.553 319.758 131.65 305.426 131.65C291.282 131.65 279.402 136.553 269.784 146.359C260.167 155.977 255.358 167.951 255.358 182.283C255.358 196.615 260.167 208.684 269.784 218.49C279.402 228.108 291.282 232.916 305.426 232.916ZM526.291 111.567H550.901V253H526.291V228.673C514.034 247.343 496.213 256.677 472.83 256.677C453.029 256.677 436.151 249.511 422.196 235.179C408.242 220.659 401.264 203.027 401.264 182.283C401.264 161.54 408.242 144.002 422.196 129.67C436.151 115.15 453.029 107.89 472.83 107.89C496.213 107.89 514.034 117.224 526.291 135.893V111.567ZM475.941 232.916C490.273 232.916 502.248 228.108 511.865 218.49C521.483 208.684 526.291 196.615 526.291 182.283C526.291 167.951 521.483 155.977 511.865 146.359C502.248 136.553 490.273 131.65 475.941 131.65C461.798 131.65 449.917 136.553 440.3 146.359C430.682 155.977 425.874 167.951 425.874 182.283C425.874 196.615 430.682 208.684 440.3 218.49C449.917 228.108 461.798 232.916 475.941 232.916ZM604.309 135.328C612.418 117.79 627.127 109.021 648.437 109.021V134.762C636.368 134.196 625.996 137.402 617.321 144.379C608.647 151.357 604.309 162.577 604.309 178.04V253H579.7V111.567H604.309V135.328ZM773.402 111.567H798.011V253H773.402V228.673C761.144 247.343 743.323 256.677 719.94 256.677C700.139 256.677 683.262 249.511 669.307 235.179C655.352 220.659 648.375 203.027 648.375 182.283C648.375 161.54 655.352 144.002 669.307 129.67C683.262 115.15 700.139 107.89 719.94 107.89C743.323 107.89 761.144 117.224 773.402 135.893V111.567ZM723.051 232.916C737.383 232.916 749.358 228.108 758.975 218.49C768.593 208.684 773.402 196.615 773.402 182.283C773.402 167.951 768.593 155.977 758.975 146.359C749.358 136.553 737.383 131.65 723.051 131.65C708.908 131.65 697.028 136.553 687.41 146.359C677.793 155.977 672.984 167.951 672.984 182.283C672.984 196.615 677.793 208.684 687.41 218.49C697.028 228.108 708.908 232.916 723.051 232.916Z" fill="white"/>
</g>
<defs>
<filter id="filter0_d_0_19" x="0" y="0" width="821" height="324.785" filterUnits="userSpaceOnUse" color-interpolation-filters="sRGB">
<feFlood flood-opacity="0" result="BackgroundImageFix"/>
<feColorMatrix in="SourceAlpha" type="matrix" values="0 0 0 0 0 0 0 0 0 0 0 0 0 0 0 0 0 0 127 0" result="hardAlpha"/>
<feOffset dy="4"/>
<feGaussianBlur stdDeviation="2"/>
<feComposite in2="hardAlpha" operator="out"/>
<feColorMatrix type="matrix" values="0 0 0 0 0 0 0 0 0 0 0 0 0 0 0 0 0 0 0.25 0"/>
<feBlend mode="normal" in2="BackgroundImageFix" result="effect1_dropShadow_0_19"/>
<feBlend mode="normal" in="SourceGraphic" in2="effect1_dropShadow_0_19" result="shape"/>
</filter>
<clipPath id="clip0_0_19">
<rect width="144.966" height="87.3529" fill="white" transform="translate(32.5192 147.337)"/>
</clipPath>
</defs>
</svg>
